<?xml version="1.0" standalone="no"?>
<!DOCTYPE svg PUBLIC "-//W3C//DTD SVG 20010904//EN"
 "http://www.w3.org/TR/2001/REC-SVG-20010904/DTD/svg10.dtd">
<svg version="1.0" xmlns="http://www.w3.org/2000/svg"
 width="100.000000pt" height="100.000000pt" viewBox="0 0 100.000000 100.000000"
 preserveAspectRatio="xMidYMid meet">
<metadata>
Created by potrace 1.11, written by Peter Selinger 2001-2013
</metadata>
<g transform="translate(0.000000,100.000000) scale(0.100000,-0.100000)"
fill="#000000" stroke="none">
<path d="M2 966 c3 -31 25 -55 207 -221 112 -102 206 -183 208 -181 2 2 -35
101 -83 220 l-86 216 -125 0 -124 0 3 -34z"/>
<path d="M601 679 c60 -176 109 -326 109 -333 0 -16 -178 -139 -193 -133 -7 3
-104 81 -217 174 -113 92 -226 185 -253 207 l-47 38 0 -316 0 -316 500 0 500
0 0 500 0 500 -254 0 -254 0 109 -321z"/>
</g>
</svg>
